# xmcd
#
# Track frame offsets:
#	150
#	15994
#	32377
#	47847
#	68019
#	86425
#	102099
#	117021
#	137163
#	155316
#	169223
#
# Disc length: 2549 seconds
#
# Revision: 1
# Processed by: cddbd v1.5.2PL0 Copyright (c) Steve Scherf et al.
# Submitted via: audiograbber 1.83.01
#
DISCID=7a09f30b
DTITLE=Stanfour - IIII
DYEAR=2015
DGENRE=Pop
TTITLE0=Rooftop
TTITLE1=Song For The Night
TTITLE2=Power Games (feat. Natasha Bedingfield)
TTITLE3=Keeps Me Alive
TTITLE4=Once In Your Life
TTITLE5=Slow
TTITLE6=Won't Let This Go
TTITLE7=Kill Me In The Dark
TTITLE8=Running
TTITLE9=Night Time
TTITLE10=Solid Gold
EXTD=
EXTT0=
EXTT1=
EXTT2=
EXTT3=
EXTT4=
EXTT5=
EXTT6=
EXTT7=
EXTT8=
EXTT9=
EXTT10=
PLAYORDER=
